<svg xmlns="http://www.w3.org/2000/svg" width="25" height="29" viewBox="0 0 25 29">
    <defs>
        <radialGradient id="prefix__a" cx="51.947%" cy="42.031%" r="85.546%" fx="51.947%" fy="42.031%" gradientTransform="scale(-1 -.875) rotate(-89.814 -.452 .491)">
            <stop offset="0%" stop-color="#0557FF"/>
            <stop offset="51.816%" stop-color="#2E94D4"/>
            <stop offset="100%" stop-color="#10D9FF"/>
        </radialGradient>
    </defs>
    <path fill="url(#prefix__a)" d="M17.767 11.607h-2.182c-.083 1.509-.365 2.866-.793 3.93 1.547-.74 2.68-2.188 2.975-3.93zm0-1.786c-.295-1.742-1.428-3.19-2.975-3.929.429 1.064.71 2.421.793 3.93h2.182zM12.5 5.431c-.43.415-1.159 1.92-1.307 4.39h2.615c-.149-2.47-.879-3.975-1.308-4.39zm-2.292.461c-1.547.74-2.68 2.187-2.975 3.93h2.182c.083-1.509.364-2.866.793-3.93zm0 9.644c-.429-1.063-.71-2.42-.793-3.929H7.233c.295 1.742 1.428 3.19 2.975 3.93zm3.6-3.929h-2.616c.148 2.47.878 3.976 1.307 4.391.43-.415 1.16-1.921 1.308-4.39zM25 20V1.429C25 .536 24.464 0 23.571 0H5.357C2.321 0 0 2.321 0 5.357v17.857c0 3.036 2.321 5.357 5.357 5.357h18.214c.715 0 1.429-.535 1.429-1.428v-.893c0-.357-.179-.714-.536-1.071-.178-.893-.178-3.393 0-4.108.357-.178.536-.535.536-1.071zM12.5 3.571c3.945 0 7.143 3.199 7.143 7.143 0 3.945-3.198 7.143-7.143 7.143s-7.143-3.198-7.143-7.143c0-3.944 3.198-7.143 7.143-7.143zM21.429 25H5.357c-1.071 0-1.786-.714-1.786-1.786 0-1.071.893-1.785 1.786-1.785H21.43V25z"/>
</svg>
